<?xml version="1.0" encoding="UTF-8"?>
<svg version="1.1" xmlns="http://www.w3.org/2000/svg" width="1536" height="1024">
<path d="M0 0 C506.88 0 1013.76 0 1536 0 C1536 337.92 1536 675.84 1536 1024 C1029.12 1024 522.24 1024 0 1024 C0 686.08 0 348.16 0 0 Z " fill="#FDFDFD" transform="translate(0,0)"/>
<path d="M0 0 C0 0.66 0 1.32 0 2 C-0.62261719 2.23332031 -1.24523437 2.46664063 -1.88671875 2.70703125 C-16.92173916 8.6413559 -31.05152531 16.55635451 -44.6875 25.1875 C-45.57099121 25.74493896 -46.45448242 26.30237793 -47.36474609 26.87670898 C-52.73351638 30.33805956 -57.76125985 34.07858113 -62.70507812 38.12329102 C-65.045752 40.03741443 -67.42371001 41.8964469 -69.8125 43.75 C-92.7981054 62.22508629 -114.91051597 87.73437363 -118.23925781 118.18896484 C-119.72054707 137.07747166 -114.05097912 152.65648808 -101.875 167.0625 C-83.43479315 186.68437272 -57.20503622 196.2572097 -31 200 C-29.96343262 200.16628906 -28.92686523 200.33257812 -27.85888672 200.50390625 C-17.49900177 202.06032089 -7.33559569 202.39972482 3.125 202.375 C4.43226044 202.37418427 4.43226044 202.37418427 5.76593018 202.37335205 C64.35762133 202.20642416 127.71770169 182.61040147 174 146 C175.61321114 144.79157256 177.22644262 143.58317163 178.84057617 142.37597656 C206.24359878 121.71787919 229.9104044 93.31560206 236.53125 58.83203125 C237.93486913 47.35744485 237.87138806 35.90130405 234.75390625 24.7265625 C233.95424478 21.83452257 233.45037598 18.96461082 233 16 C237.74265992 16.79903509 241.86478472 18.50080145 246.28125 20.35546875 C249.69548344 21.16487754 250.89533787 20.55233106 254 19 C256.16198616 18.09292908 258.32895068 17.19765913 260.5 16.3125 C261.6034375 15.85488281 262.706875 15.39726562 263.84375 14.92578125 C267.222468 13.93474639 268.75266219 13.67923404 272 15 C273.94921875 17.14453125 273.94921875 17.14453125 275.6875 19.8125 C276.26886719 20.68519531 276.85023438 21.55789063 277.44921875 22.45703125 C281 28.27959698 281 28.27959698 281 32 C281.66 32 282.32 32 283 32 C284.33912585 35.12254943 285.67030658 38.24842358 287 41.375 C287.3815625 42.26445312 287.763125 43.15390625 288.15625 44.0703125 C288.5171875 44.92109375 288.878125 45.771875 289.25 46.6484375 C289.58515625 47.43395996 289.9203125 48.21948242 290.265625 49.02880859 C291 51 291 51 291 53 C287.08739673 54.51075416 283.16930187 56.00671908 279.25 57.5 C278.13882812 57.92925781 277.02765625 58.35851562 275.8828125 58.80078125 C274.81289063 59.20683594 273.74296875 59.61289062 272.640625 60.03125 C271.65610352 60.40830078 270.67158203 60.78535156 269.65722656 61.17382812 C267 62 267 62 263 62 C263.04640625 62.83660156 263.0928125 63.67320312 263.140625 64.53515625 C263.44326739 74.29537326 262.44547333 84.10905333 258 93 C258.77085937 93.0825 259.54171875 93.165 260.3359375 93.25 C265.33379888 94.2730164 269.88971664 96.12943226 274.625 98 C276.49138652 98.73121444 278.35854608 99.46045952 280.2265625 100.1875 C281.04721191 100.51105469 281.86786133 100.83460938 282.71337891 101.16796875 C284.79641051 101.92592003 286.84041508 102.50921341 289 103 C284.36831561 120.63290373 275.76656524 136.39784589 265 151 C259.78461273 150.62069911 254.90177726 149.77726201 249.84375 148.49560547 C238.96668575 145.29148047 238.96668575 145.29148047 228 146 C224.1774751 148.9241171 221.16544764 152.394465 218 156 C216.69223407 157.21559957 215.3606282 158.40637504 214 159.5625 C209.93583277 163.02948347 206.01854172 166.64534599 202.1015625 170.27734375 C200 172 200 172 198 172 C199.53866152 174.7933327 201.08161523 177.58427473 202.625 180.375 C203.0777832 181.19758301 203.53056641 182.02016602 203.99707031 182.86767578 C206.87686121 188.07203061 209.88409687 193.13506856 213.234375 198.0546875 C214 200 214 200 213.33325195 201.90917969 C211.68798746 204.48930147 209.97463041 205.69526941 207.43359375 207.3984375 C206.00974365 208.35556641 206.00974365 208.35556641 204.55712891 209.33203125 C203.52765137 210.00621094 202.49817383 210.68039062 201.4375 211.375 C200.38224121 212.07238281 199.32698242 212.76976562 198.23974609 213.48828125 C166.77206184 234 166.77206184 234 161 234 C159.5546875 232.53125 159.5546875 232.53125 157.875 230.5 C154.73991944 226.81968804 151.50255115 223.33056292 148.02734375 219.96875 C146.6705337 218.65115411 145.3495562 217.29568106 144.06640625 215.90625 C143.42574219 215.2565625 142.78507812 214.606875 142.125 213.9375 C141.57070313 213.34839844 141.01640625 212.75929688 140.4453125 212.15234375 C133.64995071 208.95005664 125.83323321 212.57436429 119.21875 214.94140625 C115.97136382 216.12803688 112.73513764 217.34293992 109.5 218.5625 C107.02108811 219.48632257 104.54098795 220.40680307 102.05969238 221.32420349 C100.524446 221.89293594 98.99076774 222.46592336 97.4588623 223.04359436 C92.21990947 225 92.21990947 225 90 225 C90.01160156 226.00675781 90.02320313 227.01351562 90.03515625 228.05078125 C90.11988955 239.06743404 89.67584897 250.00538555 89 261 C74.41309136 265.14079987 59.23535504 267.52788893 44.1875 269.25 C43.15955322 269.37000366 43.15955322 269.37000366 42.11083984 269.49243164 C36.73630653 270.05710442 31.40025129 270.07495529 26 270 C25.77860352 269.38068604 25.55720703 268.76137207 25.32910156 268.12329102 C24.30625433 265.26841902 23.27816033 262.41546261 22.25 259.5625 C21.72792969 258.10166992 21.72792969 258.10166992 21.1953125 256.61132812 C20.15489149 253.73090329 19.08784693 250.86283386 18 248 C17.66419922 247.11038574 17.32839844 246.22077148 16.98242188 245.30419922 C16.65306641 244.49096191 16.32371094 243.67772461 15.984375 242.83984375 C15.69788086 242.12046631 15.41138672 241.40108887 15.11621094 240.65991211 C14.13870773 238.88967702 14.13870773 238.88967702 12.3737793 238.27319336 C8.92964812 237.87681541 5.49744792 237.82234295 2.03515625 237.7890625 C0.42519836 237.76368365 -1.18474617 237.73744624 -2.79467773 237.71044922 C-3.63441132 237.69721619 -4.4741449 237.68398315 -5.33932495 237.67034912 C-20.08166181 237.41303312 -34.51662795 236.97728871 -49 234 C-50.2080127 233.75443359 -51.41602539 233.50886719 -52.66064453 233.25585938 C-56.78044682 232.4091359 -60.89119034 231.52338964 -65 230.625 C-66.28898193 230.3451123 -67.57796387 230.06522461 -68.90600586 229.77685547 C-94.29323549 223.98445638 -116.53444949 212.2955419 -135 194 C-136.03640625 192.98292969 -136.03640625 192.98292969 -137.09375 191.9453125 C-150.67508878 177.56144007 -155.76161856 159.48621709 -155.52172852 140.15136719 C-154.64697802 114.0397674 -139.89464397 86.79550956 -121 69 C-120.34 69 -119.68 69 -119 69 C-118.75765625 68.42378906 -118.5153125 67.84757812 -118.265625 67.25390625 C-102.63539335 39.41858631 -31.22761321 0 0 0 Z " fill="#3453A4" transform="translate(702,270)"/>
<path d="M0 0 C11.22 0 22.44 0 34 0 C35.01320313 2.78566406 36.02640625 5.57132813 37.0703125 8.44140625 C38.07267902 11.19218168 39.0758535 13.94266121 40.07910156 16.69311523 C40.76646656 18.5788764 41.45301474 20.46493554 42.13867188 22.35131836 C45.84536395 32.54743115 49.62888858 42.69042203 53.70458984 52.74487305 C55.52731635 57.32504878 57.16011326 61.95983937 58.75 66.625 C59.32711159 68.30503596 59.90520533 69.98473492 60.484375 71.6640625 C60.72897461 72.38029785 60.97357422 73.0965332 61.22558594 73.83447266 C62.08916607 76.24933892 63.03504232 78.62403893 64 81 C67.80841217 72.98927461 71.06937708 64.81491363 74.1920166 56.52053833 C75.5937535 52.79833283 77.0076275 49.08074801 78.421875 45.36328125 C78.85823273 44.21565559 78.85823273 44.21565559 79.30340576 43.04484558 C83.09819689 33.08673954 87.02413478 23.18024293 90.94921875 13.27294922 C91.21418152 12.60354813 91.47914429 11.93414703 91.75213623 11.24446106 C92.46693387 9.43936703 93.18312319 7.63482427 93.89941406 5.83032227 C94.64807364 3.90503156 95.3467592 1.9597224 96 0 C106.56 0 117.12 0 128 0 C136.60670178 20.45488865 144.73538127 41.05651081 152.67504883 61.77905273 C153.28028633 63.35285454 153.28028633 63.35285454 153.89775085 64.95845032 C154.66273395 66.9478643 155.42468815 68.9384464 156.18318176 70.93034363 C156.52508041 71.8184523 156.86697906 72.70656097 157.21923828 73.62158203 C157.51613556 74.39792999 157.81303284 75.17427795 158.118927 75.97415161 C159.03543004 78.2447095 159.03543004 78.2447095 161 81 C165.07411767 70.51831705 169.0458643 60.01547963 172.6875 49.375 C176.27209642 38.91706746 180.08505187 28.54896686 183.9375 18.1875 C184.23071136 17.39776794 184.52392273 16.60803589 184.82601929 15.79437256 C185.66235924 13.54330413 186.50061846 11.2929629 187.33984375 9.04296875 C187.72055023 8.0195916 187.72055023 8.0195916 188.10894775 6.97554016 C189.88313117 2.23373766 189.88313117 2.23373766 191 0 C202.22 0 213.44 0 225 0 C220.74160203 11.38302535 216.34394393 22.66811266 211.65234375 33.87890625 C206.8264712 45.46267576 202.14031787 57.09864996 197.51953125 68.765625 C197.20408482 69.56183573 196.88863838 70.35804646 196.56363297 71.17838478 C193.97616336 77.71133062 191.39392542 84.24634124 188.8125 90.78167725 C186.85763211 95.73039613 184.90073423 100.67830183 182.94089317 105.62505341 C182.03419463 107.91607398 181.13054995 110.20828355 180.227005 112.50054932 C179.67989659 113.88226481 179.13263865 115.26392111 178.58520508 116.64550781 C178.10843826 117.85265442 177.63167145 119.05980103 177.14045715 120.30352783 C176 123 176 123 175 124 C172.85441173 124.08775605 170.70595579 124.10695219 168.55859375 124.09765625 C167.25341797 124.09443359 165.94824219 124.09121094 164.60351562 124.08789062 C163.2148431 124.07953401 161.82617123 124.07106905 160.4375 124.0625 C159.04492344 124.05748666 157.65234519 124.05292347 156.25976562 124.04882812 C152.8398013 124.03699434 149.41992156 124.0205088 146 124 C145.72438232 123.29319092 145.44876465 122.58638184 145.16479492 121.8581543 C139.5979276 107.59728846 133.95997485 93.37214624 128.1496582 79.20825195 C125.68911487 73.19442444 123.26640039 67.16795048 120.8984375 61.1171875 C120.51664337 60.14165924 120.51664337 60.14165924 120.12713623 59.14642334 C118.89310366 55.9894234 117.66406771 52.83059379 116.43945312 49.66992188 C116.00310547 48.54908203 115.56675781 47.42824219 115.1171875 46.2734375 C114.73159668 45.27747559 114.34600586 44.28151367 113.94873047 43.25537109 C113.19696483 41.07109462 113.19696483 41.07109462 112 40 C111.64866753 40.87060059 111.64866753 40.87060059 111.29023743 41.75878906 C100.22225189 69.18427598 89.14561592 96.60595606 78 124 C68.43 124 58.86 124 49 124 C39.33406303 100.65915941 29.82301674 77.25939132 20.43676758 53.8046875 C18.64128352 49.31872433 16.84015437 44.83504863 15.03786945 40.35181427 C13.6254001 36.83553017 12.21682608 33.31769525 10.80931664 29.79942322 C10.14616444 28.14362399 9.48161419 26.48838388 8.81554604 24.83375549 C7.89154263 22.53728138 6.97309607 20.23865627 6.0559082 17.93945312 C5.78946503 17.28076233 5.52302185 16.62207153 5.24850464 15.94342041 C3.15407249 10.66694952 1.65036425 5.50121418 0 0 Z " fill="#185290" transform="translate(558,583)"/>
<path d="M0 0 C-0.75006724 8.4277218 -1.89910438 16.78633746 -3.10180664 25.15869141 C-3.43672826 27.4946175 -3.76640396 29.83124423 -4.09570312 32.16796875 C-5.08696816 39.13783289 -6.12792501 46.07285941 -7.58227539 52.96435547 C-8.18411236 55.89721149 -8.59830299 58.84639795 -9 61.8125 C-9.93224739 68.55279662 -10.95024442 75.27709721 -12 82 C-14.93501257 79.16347778 -17.53069023 76.2001295 -20.0625 73 C-20.73410156 72.154375 -21.40570312 71.30875 -22.09765625 70.4375 C-22.72542969 69.633125 -23.35320312 68.82875 -24 68 C-24.57621094 67.278125 -25.15242188 66.55625 -25.74609375 65.8125 C-27 64 -27 64 -27 62 C-27.66 62 -28.32 62 -29 62 C-29.40605469 63.08861328 -29.40605469 63.08861328 -29.8203125 64.19921875 C-36.09694013 79.10101348 -48.70037206 92.71898783 -59 105 C-59.81597656 105.99 -60.63195312 106.98 -61.47265625 108 C-69.74564645 117.97793348 -78.52138982 127.54943576 -87.70703125 136.6953125 C-89.84967576 138.8489075 -91.83590747 141.06966892 -93.8125 143.375 C-96.91333859 146.88505706 -100.12197937 149.99320689 -103.69921875 153.0078125 C-105.99182282 154.99291959 -108.18597691 157.06437341 -110.3815918 159.15551758 C-132.20115654 179.80988005 -158.67145606 195.79748736 -186 208 C-186.64114746 208.29390625 -187.28229492 208.5878125 -187.94287109 208.890625 C-213.47589802 220.51586357 -247.99335864 226.50858831 -275 217 C-290.52159154 210.9700871 -302.42523882 200.40939381 -309.25 185.1875 C-311.79774875 178.90984708 -313.62710562 172.62742539 -315 166 C-315.18820312 165.17242187 -315.37640625 164.34484375 -315.5703125 163.4921875 C-316.02771182 160.83927143 -316.09836155 158.3771162 -316.0625 155.6875 C-316.05347656 154.80449219 -316.04445313 153.92148437 -316.03515625 153.01171875 C-316.01775391 152.01591797 -316.01775391 152.01591797 -316 151 C-314 152 -314 152 -313.2109375 153.96875 C-312.93507813 154.8040625 -312.65921875 155.639375 -312.375 156.5 C-308.39992068 166.70707179 -300.57011769 173.0862776 -291 178 C-264.075759 189.68059707 -232.93199642 186.12732097 -206 176 C-179.19658065 165.33650622 -154.71092625 151.76070782 -132 134 C-131.02417969 133.23945313 -130.04835938 132.47890625 -129.04296875 131.6953125 C-119.50519172 124.07067669 -110.60372619 115.6566722 -102 107 C-100.84993342 105.87140133 -99.69880752 104.74388158 -98.546875 103.6171875 C-92.05682137 97.23774045 -85.78617542 90.87259369 -80.15234375 83.70703125 C-78.22423917 81.28202857 -76.21823622 78.95007904 -74.17431641 76.62280273 C-66.10937794 67.38239009 -57.49777991 56.99555982 -52 46 C-52.66902344 45.896875 -53.33804687 45.79375 -54.02734375 45.6875 C-57.7056365 44.83680417 -61.08938722 43.44798409 -64.5625 42 C-70.15817713 39.6288743 -70.15817713 39.6288743 -76 38 C-76 37.34 -76 36.68 -76 36 C-75.44127197 35.78883545 -74.88254395 35.5776709 -74.30688477 35.36010742 C-66.66452171 32.39460928 -59.30443716 28.89395126 -51.9375 25.3125 C-51.29693665 25.00253082 -50.65637329 24.69256165 -49.99639893 24.37319946 C-41.89352285 20.45103175 -33.8613513 16.42692326 -25.94311523 12.14208984 C-20.54185353 9.236413 -15.04271803 6.5622645 -9.5 3.9375 C-8.25065674 3.34521606 -8.25065674 3.34521606 -6.97607422 2.7409668 C-1.13515327 0 -1.13515327 0 0 0 Z " fill="#41308C" transform="translate(963,195)"/>
<path d="M0 0 C31 0 31 0 37.1875 5.5 C38.16600613 7.33049834 39.14290527 9.16454349 40.01123047 11.04980469 C41.79434339 14.56671974 44.32317283 17.53480146 46.75 20.625 C47.77229254 21.98262687 48.79044349 23.34338106 49.8046875 24.70703125 C50.32514648 25.40521973 50.84560547 26.1034082 51.38183594 26.82275391 C55.99520148 33.03005534 60.57518501 39.26201152 65.15625 45.49316406 C68.3927066 49.89357936 71.63417436 54.29030203 74.875 58.6875 C76.05991707 60.29555727 77.24481494 61.90362868 78.4296875 63.51171875 C78.92710449 64.18678467 79.42452148 64.86185059 79.93701172 65.55737305 C80.28779785 66.03343994 80.63858398 66.50950684 81 67 C85.48524287 62.81656787 88.97852296 58.15084973 92.5625 53.1875 C93.81319986 51.47221698 95.06451147 49.75737986 96.31640625 48.04296875 C96.93789551 47.19009277 97.55938477 46.3372168 98.19970703 45.45849609 C100.76941581 41.94927893 103.3815057 38.47288044 106 35 C111.08159971 28.24884212 116.10264855 21.45423911 121.10546875 14.64453125 C121.65589844 13.89558594 122.20632813 13.14664063 122.7734375 12.375 C123.25216309 11.72273437 123.73088867 11.07046875 124.22412109 10.3984375 C126.79962914 6.92004995 129.40314194 3.46247742 132 0 C142.23 0 152.46 0 163 0 C163 40.92 163 81.84 163 124 C152.77 124 142.54 124 132 124 C131.67 98.26 131.34 72.52 131 46 C126.05 52.93 126.05 52.93 121 60 C117.99065715 64.06497621 114.9737553 68.11750358 111.88745117 72.12402344 C108.50059008 76.54635001 105.33425932 80.98543971 102.40625 85.7265625 C93.41113295 99.85368221 93.41113295 99.85368221 85.9609375 101.7421875 C80.16936675 102.47802605 74.15507653 102.32217254 69.29833984 98.74755859 C66.19793845 95.55482714 64.14515959 91.8135976 62.07128906 87.90625 C60.42307804 84.97342602 58.35065849 82.43325722 56.25 79.8125 C51.96383446 74.32271484 47.81625246 68.73377965 43.6875 63.125 C43.1006543 62.32811768 42.51380859 61.53123535 41.90917969 60.71020508 C40.79164126 59.18914656 39.67646546 57.6663486 38.56396484 56.14160156 C37.53903154 54.73811812 36.50829778 53.33884818 35.47119141 51.94433594 C32 47.22253954 32 47.22253954 32 45 C31.34 45 30.68 45 30 45 C30 70.74 30 96.48 30 123 C20.1 123 10.2 123 0 123 C0 82.41 0 41.82 0 0 Z " fill="#18518F" transform="translate(954,583)"/>
<path d="M0 0 C14.89125 -0.0825 29.7825 -0.165 45.125 -0.25 C52.13838623 -0.30462402 52.13838623 -0.30462402 59.29345703 -0.36035156 C65.07006836 -0.37841797 65.07006836 -0.37841797 67.787323 -0.3817749 C69.65674668 -0.38785637 71.52615619 -0.40179608 73.39547729 -0.42230225 C91.16802195 -0.60726041 106.65766484 1.13771278 120.3125 13.75 C129.72941829 23.64348299 130.54255273 34.47940287 130.33203125 47.44921875 C129.89892588 58.09149103 125.65045193 65.33578132 118.3125 72.87890625 C106.27225353 83.92257827 91.23273568 85.16299705 75.62890625 85.09765625 C74.35144028 85.0962413 73.0739743 85.09482635 71.75779724 85.09336853 C68.38275254 85.08873516 65.00777703 85.07977023 61.63275146 85.06866455 C58.180304 85.05838426 54.72784914 85.05380178 51.27539062 85.04882812 C44.51688846 85.03867718 37.75850646 85.01909782 31 85 C31 97.87 31 110.74 31 124 C20.77 124 10.54 124 0 124 C0 83.08 0 42.16 0 0 Z " fill="#18518F" transform="translate(802,583)"/>
<path d="M0 0 C39.93 0 79.86 0 121 0 C121 8.25 121 16.5 121 25 C91.3 25 61.6 25 31 25 C31 32.92 31 40.84 31 49 C57.07 49 83.14 49 110 49 C110 56.92 110 64.84 110 73 C83.93 73 57.86 73 31 73 C31 81.25 31 89.5 31 98 C61.36 98 91.72 98 123 98 C123 106.58 123 115.16 123 124 C82.41 124 41.82 124 0 124 C0 83.08 0 42.16 0 0 Z " fill="#1B5491" transform="translate(419,583)"/>
<path d="M0 0 C19.14 0 38.28 0 58 0 C58.36097928 25.46463739 58.36097928 25.46463739 58.43945312 36.3203125 C58.49325433 43.72780375 58.55689244 51.13429375 58.67895508 58.54101562 C58.7767537 64.51278519 58.83055993 70.48348127 58.85389519 76.45598984 C58.87052378 78.73431172 58.90299731 81.01257487 58.95157051 83.29043961 C59.01693709 86.4828398 59.0259019 89.67080769 59.02172852 92.86376953 C59.054086 93.80532394 59.08644348 94.74687836 59.11978149 95.71696472 C59.08149208 98.42466649 58.94594845 100.45928609 58 103 C55.2934076 105.62365969 52.34162525 107.2978177 49 109 C47.74602767 109.7298061 46.49416806 110.46327767 45.24609375 111.203125 C36.85357475 115.78476088 28.25454931 119.74109312 19.4375 123.4375 C18.42679443 123.86256836 17.41608887 124.28763672 16.37475586 124.72558594 C10.85871283 126.99116085 5.88280846 128.52929789 0 130 C0 87.1 0 44.2 0 0 Z " fill="#1183C6" transform="translate(744,234)"/>
<path d="M0 0 C17.25426102 1.15028407 17.25426102 1.15028407 24.09375 1.9375 C25.23559753 2.06499634 25.23559753 2.06499634 26.4005127 2.19506836 C27.97649437 2.37164576 29.55230294 2.54977532 31.12792969 2.72949219 C33.52500906 3.002852 35.92259625 3.27135159 38.3203125 3.5390625 C39.86982275 3.71326543 41.41930307 3.88773478 42.96875 4.0625 C43.67302124 4.14169678 44.37729248 4.22089355 45.10290527 4.30249023 C49.41399984 4.79520153 53.70569315 5.37938057 58 6 C58.37369319 15.35371638 58.65644338 24.70479999 58.82899475 34.06439877 C58.91189582 38.41275254 59.0239073 42.75593971 59.20703125 47.10131836 C60.51824201 79.04265244 60.51824201 79.04265244 52.49780273 88.3785553 C49.79992961 90.99276979 47.01380753 93.32602513 43.96876526 95.52426147 C40.97631875 97.76732655 38.55653175 100.40040892 36 103.125 C32.44713208 106.64080372 28.82124152 110.01748942 25.01953125 113.26171875 C22.67935811 115.2759877 20.40532345 117.35577392 18.125 119.4375 C4.87823276 131.37392241 4.87823276 131.37392241 0 133 C0 89.11 0 45.22 0 0 Z " fill="#0F5094" transform="translate(816,194)"/>
<path d="M0 0 C0 0.66 0 1.32 0 2 C-0.62261719 2.23332031 -1.24523437 2.46664063 -1.88671875 2.70703125 C-16.92173916 8.6413559 -31.05152531 16.55635451 -44.6875 25.1875 C-45.57099121 25.74493896 -46.45448242 26.30237793 -47.36474609 26.87670898 C-52.73351638 30.33805956 -57.76125985 34.07858113 -62.70507812 38.12329102 C-65.045752 40.03741443 -67.42371001 41.8964469 -69.8125 43.75 C-92.7981054 62.22508629 -114.91051597 87.73437363 -118.23925781 118.18896484 C-119.72054707 137.07747166 -114.05097912 152.65648808 -101.875 167.0625 C-94.72536189 174.72456951 -86.20726158 181.47850531 -76.609375 185.76953125 C-74.33020409 187.51210124 -74.45288481 189.25251726 -74 192 C-83.40222012 191.57142274 -92.18982196 190.0901359 -101.3125 187.8125 C-102.58706055 187.49716309 -103.86162109 187.18182617 -105.17480469 186.85693359 C-118.02536168 183.60086923 -129.65774257 179.38390767 -141.4375 173.3125 C-142.1790332 172.93174316 -142.92056641 172.55098633 -143.68457031 172.15869141 C-148.87734104 169.36797687 -148.87734104 169.36797687 -150 166 C-150.66 166 -151.32 166 -152 166 C-154.72519494 158.51998874 -155.51482405 151.7464349 -155.4375 143.8125 C-155.42920166 142.71043213 -155.42090332 141.60836426 -155.41235352 140.47290039 C-154.84905677 113.17606143 -139.6930414 90.43020418 -122.41015625 70.328125 C-121 69 -121 69 -119 69 C-118.75765625 68.42378906 -118.5153125 67.84757812 -118.265625 67.25390625 C-102.63539335 39.41858631 -31.22761321 0 0 0 Z " fill="#0D83C8" transform="translate(702,270)"/>
<path d="M0 0 C0.66 0 1.32 0 2 0 C2.41683256 26.95517247 -6.10203086 50.91979915 -23 72 C-23.67748291 72.84667236 -23.67748291 72.84667236 -24.36865234 73.71044922 C-64.53597939 123.39516605 -128.75679751 150.46178374 -191.11083984 157.64697266 C-218.41251428 160.12520374 -250.06866673 158.55967619 -275 146 C-275.92683594 145.54882812 -276.85367188 145.09765625 -277.80859375 144.6328125 C-284.53923207 141.17880948 -290.31377286 136.97422958 -296 132 C-296.95712891 131.16855469 -296.95712891 131.16855469 -297.93359375 130.3203125 C-307.72554037 121.20442456 -313.75091983 108.74063394 -315.4453125 95.52734375 C-315.9162705 81.85386305 -312.43396531 68.47308646 -305 57 C-304.34 57.33 -303.68 57.66 -303 58 C-303.27714844 58.6290625 -303.55429687 59.258125 -303.83984375 59.90625 C-306.10716243 65.26389984 -307.75256891 70.15072913 -308 76 C-308.06316406 77.04027344 -308.12632812 78.08054687 -308.19140625 79.15234375 C-308.70102948 94.03005416 -304.08083167 106.66513477 -294 117.625 C-281.28770745 129.71770183 -263.80091552 135.41549635 -247 139 C-245.95996826 139.22864746 -245.95996826 139.22864746 -244.89892578 139.46191406 C-216.28978652 145.58158672 -186.14262803 141.64764403 -158 135 C-157.05833984 134.78891602 -156.11667969 134.57783203 -155.14648438 134.36035156 C-110.27632848 124.27000812 -61.31707779 99.58148644 -32 63 C-31.23171875 62.04609375 -30.4634375 61.0921875 -29.671875 60.109375 C-16.19652133 43.1239428 -2.01388502 22.15273519 0 0 Z " fill="#1B63AC" transform="translate(920,296)"/>
<path d="M0 0 C0 23.43 0 46.86 0 71 C-22.12365024 74.16052146 -37.8477492 74.0761254 -58 64 C-58 45.85 -58 27.7 -58 9 C-51.4 8.01 -44.8 7.02 -38 6 C-32.80805274 5.14334108 -27.62155699 4.27560829 -22.4375 3.375 C-21.16970703 3.1584375 -19.90191406 2.941875 -18.59570312 2.71875 C-17.38720703 2.50992187 -16.17871094 2.30109375 -14.93359375 2.0859375 C-13.86165771 1.9007959 -12.78972168 1.7156543 -11.68530273 1.52490234 C-3.88418605 0 -3.88418605 0 0 0 Z " fill="#5B2E8B" transform="translate(731,297)"/>
<path d="M0 0 C7.5625998 -0.06895988 15.12410361 -0.12866985 22.68676758 -0.16479492 C25.2580943 -0.17985844 27.82939543 -0.2003132 30.40063477 -0.22631836 C34.10178962 -0.26280761 37.802604 -0.27975121 41.50390625 -0.29296875 C43.22148888 -0.31619453 43.22148888 -0.31619453 44.97377014 -0.33988953 C52.68943331 -0.34150745 57.81610912 0.24062791 63.8125 5.4375 C67.3843595 9.62167828 68.41873603 12.1910931 68.25 17.84375 C67.67134561 22.83464409 66.25800634 26.74199366 62.6875 30.3125 C61.800625 30.869375 60.91375 31.42625 60 32 C59.21028809 32.52376221 58.42057617 33.04752441 57.60693359 33.5871582 C52.28480941 35.67184296 47.26528538 35.36921203 41.6015625 35.29296875 C40.41146576 35.28872391 39.22136902 35.28447906 37.99520874 35.28010559 C34.20490625 35.26335169 30.41514102 35.22570416 26.625 35.1875 C24.05078894 35.17244897 21.47656953 35.1587613 18.90234375 35.14648438 C12.60119042 35.11601458 6.30119459 35.05728359 0 35 C0 23.45 0 11.9 0 0 Z " fill="#FBFCFD" transform="translate(833,608)"/>
<path d="M0 0 C19.14 0 38.28 0 58 0 C58 3.3 58 6.6 58 10 C57.01 10 56.02 10 55 10 C52.86747263 10.60761953 52.86747263 10.60761953 51 12 C50.76667969 12.71027344 50.53335938 13.42054688 50.29296875 14.15234375 C48.44902884 18.21346821 45.55590458 20.80450904 42.375 23.875 C41.73981445 24.49705322 41.10462891 25.11910645 40.45019531 25.76000977 C33.75605609 32.27884258 27.03032482 38.15130729 19.296875 43.421875 C17.83521148 44.42614721 16.39545971 45.46367653 14.98828125 46.54296875 C12.88267822 48.08597451 10.73366685 49.32311383 8.4375 50.5625 C5.85806884 51.95878567 3.44619751 53.36920166 1 55 C-0.00122171 51.99633486 -0.12112011 50.02260407 -0.11352539 46.88598633 C-0.11340454 45.83060669 -0.11328369 44.77522705 -0.11315918 43.68786621 C-0.10804321 42.58044067 -0.10292725 41.47301514 -0.09765625 40.33203125 C-0.09664917 39.31282593 -0.09564209 38.29362061 -0.09460449 37.24353027 C-0.08936913 33.43317542 -0.07540788 29.62283659 -0.0625 25.8125 C-0.041875 17.294375 -0.02125 8.77625 0 0 Z " fill="#01A6E4" transform="translate(744,234)"/>
<path d="M0 0 C8.68097611 0.57873174 17.29630133 1.15466979 25.9375 2.0625 C27.2668457 2.19881836 27.2668457 2.19881836 28.62304688 2.33789062 C30.74894244 2.55622585 32.8745111 2.77774076 35 3 C34.67 3.99 34.34 4.98 34 6 C33.01 6.33 32.02 6.66 31 7 C29.65952484 9.44317202 28.46914258 11.84715092 27.3125 14.375 C22.56491085 24.25313663 16.52999999 32.46364115 9.25 40.625 C8.79004639 41.14674805 8.33009277 41.66849609 7.85620117 42.20605469 C5.15612196 45.14265514 4.01031706 45.99742073 0 47 C0 31.49 0 15.98 0 0 Z " fill="#0772B9" transform="translate(816,194)"/>
<path d="M0 0 C4.2732674 2.11335882 6.33127968 5.14276016 8.12890625 9.37890625 C9.37523292 13.14721159 9.50484913 15.7005136 7.9453125 19.39453125 C5.03506525 24.74149399 1.62675512 27.61315846 -4.20703125 29.38671875 C-9.6687044 30.05745054 -13.36598615 28.94425201 -18.20703125 26.38671875 C-21.00873635 24.03934421 -23.04537147 21.87169809 -24.20703125 18.38671875 C-24.66037941 12.76520158 -24.39636687 9.22571073 -21.20703125 4.38671875 C-14.96886459 -1.24284629 -8.20245817 -2.27926714 0 0 Z " fill="#828283" transform="translate(949.20703125,744.61328125)"/>
<path d="M0 0 C4.41896942 2.13057454 7.43113062 4.81369434 10 9 C11.48969341 14.67945611 11.21014032 18.11710443 8.3125 23.23828125 C5.61109982 26.8642678 2.19904471 28.60031843 -2 30 C-7.4784517 30.42141936 -11.18522681 29.674874 -16 27 C-18.46031224 24.6221209 -20.46189496 22.07621008 -22 19 C-22.05655292 12.71131513 -21.25884521 7.85035149 -17 3 C-11.5758161 -0.90242491 -6.46952106 -0.79003649 0 0 Z " fill="#828182" transform="translate(817,744)"/>
<path d="M0 0 C4.43341977 2.55332138 7.01173373 5.09721477 8.609375 10.08984375 C9.2587272 15.09913217 8.46642944 18.91317518 6.0703125 23.2890625 C2.52559785 27.6583498 -2.6395001 28.87850109 -8.015625 29.52734375 C-13.94928448 28.75816567 -18.57936713 26.78062267 -22.390625 22.08984375 C-23.94471318 17.42757922 -24.11567556 12.94836012 -23.390625 8.08984375 C-18.61229087 -0.70415881 -9.31735266 -3.54729276 0 0 Z " fill="#828182" transform="translate(577.390625,797.91015625)"/>
<path d="M0 0 C2.84625 -0.061875 5.6925 -0.12375 8.625 -0.1875 C9.51010254 -0.21481201 10.39520508 -0.24212402 11.30712891 -0.27026367 C16.30379078 -0.32255824 19.66397743 0.24495796 24 3 C26.39286884 5.39286884 26.32050616 6.09447094 26.375 9.375 C26.30946237 12.76657221 26.19088515 13.73912363 24.125 16.5625 C22 18 22 18 20 18 C20.5053125 18.62648438 21.010625 19.25296875 21.53125 19.8984375 C22.1809375 20.71570313 22.830625 21.53296875 23.5 22.375 C24.47453125 23.59316406 24.47453125 23.59316406 25.46875 24.8359375 C27 27 27 27 27 29 C24.4375 29.5625 24.4375 29.5625 21 29 C19.32421875 27.03125 19.32421875 27.03125 17.625 24.5625 C15.29628352 21.12183621 15.29628352 21.12183621 11.77734375 19.1796875 C9.34346116 18.86643598 9.34346116 18.86643598 6 19 C6 22.3 6 25.6 6 29 C4.02 29 2.04 29 0 29 C0 19.43 0 9.86 0 0 Z " fill="#848383" transform="translate(833,744)"/>
<path d="M0 0 C2.84625 -0.061875 5.6925 -0.12375 8.625 -0.1875 C9.51010254 -0.21481201 10.39520508 -0.24212402 11.30712891 -0.27026367 C16.28219813 -0.32233226 19.7215708 0.17623673 24 3 C26.50031654 6.75047482 26.53603554 8.55856266 26 13 C23.5 15.9375 23.5 15.9375 21 18 C22.45044271 22.10958767 24.51110752 25.43258745 27 29 C23.875 29.5 23.875 29.5 20 29 C17.5118883 26.63602403 15.64782223 24.00591748 14 21 C14 20.34 14 19.68 14 19 C11.03 19 8.06 19 5 19 C5 22.3 5 25.6 5 29 C3.35 29 1.7 29 0 29 C0 19.43 0 9.86 0 0 Z " fill="#7D7D7D" transform="translate(572,744)"/>
<path d="M0 0 C5.0428125 -0.1546875 5.0428125 -0.1546875 10.1875 -0.3125 C11.76374146 -0.38078003 11.76374146 -0.38078003 13.37182617 -0.45043945 C17.9971853 -0.5191834 20.29459697 -0.50887283 24.140625 2.265625 C26.94501858 6.38973321 26.70028149 8.09802956 26 13 C24.125 15.5 24.125 15.5 22 17 C21.34 17 20.68 17 20 17 C22.31 20.63 24.62 24.26 27 28 C25.02 28 23.04 28 21 28 C19.1640625 26.06640625 19.1640625 26.06640625 17.625 23.5625 C15.29628352 20.12183621 15.29628352 20.12183621 11.77734375 18.1796875 C9.34346116 17.86643598 9.34346116 17.86643598 6 18 C6 21.3 6 24.6 6 28 C4.02 28 2.04 28 0 28 C0 18.76 0 9.52 0 0 Z " fill="#807F80" transform="translate(523,798)"/>
<path d="M0 0 C2.5625 1.125 2.5625 1.125 4 3 C4.4375 6 4.4375 6 4 9 C2.25910957 11.32118724 0.45558321 12.36294453 -2 14 C-0.02 15.65 1.96 17.3 4 19 C4 17.35 4 15.7 4 14 C6.475 14.495 6.475 14.495 9 15 C8.690625 16.85625 8.690625 16.85625 8.375 18.75 C7.92331586 22.20477328 8.14175964 23.98035942 10 27 C9.67 27.66 9.34 28.32 9 29 C7.046875 28.67447917 5.09375 28.34895833 3.140625 28.0234375 C0.95420214 27.83618893 0.95420214 27.83618893 -0.95703125 28.98046875 C-4.80446883 30.9005093 -8.94533429 30.00875367 -13 29 C-16.49329135 26.55469605 -17.73855271 25.22880228 -18.625 21.0625 C-18 18 -18 18 -15.4375 15.0625 C-14.633125 14.051875 -13.82875 13.04125 -13 12 C-13.32759934 9.66585471 -13.66073053 7.33247761 -14 5 C-10.41139772 -0.62214358 -6.16134159 -1.03455363 0 0 Z " fill="#848384" transform="translate(1086,744)"/>
<path d="M0 0 C2.866875 -0.061875 5.73375 -0.12375 8.6875 -0.1875 C10.02880981 -0.22846802 10.02880981 -0.22846802 11.3972168 -0.27026367 C16.11847334 -0.3195041 19.15164086 -0.03895282 23 3 C25.39286884 5.39286884 25.32050616 6.09447094 25.375 9.375 C25.30946237 12.76657221 25.19088515 13.73912363 23.125 16.5625 C21 18 21 18 19 18 C19.5053125 18.62648438 20.010625 19.25296875 20.53125 19.8984375 C21.1809375 20.71570313 21.830625 21.53296875 22.5 22.375 C23.47453125 23.59316406 23.47453125 23.59316406 24.46875 24.8359375 C26 27 26 27 26 29 C23.4375 29.5625 23.4375 29.5625 20 29 C18.32421875 27.03125 18.32421875 27.03125 16.625 24.5625 C14.29628352 21.12183621 14.29628352 21.12183621 10.77734375 19.1796875 C8.34346116 18.86643598 8.34346116 18.86643598 5 19 C5 22.3 5 25.6 5 29 C3.35 29 1.7 29 0 29 C0 19.43 0 9.86 0 0 Z " fill="#838383" transform="translate(636,744)"/>
<path d="M0 0 C2.866875 -0.061875 5.73375 -0.12375 8.6875 -0.1875 C10.02880981 -0.22846802 10.02880981 -0.22846802 11.3972168 -0.27026367 C16.11847334 -0.3195041 19.15164086 -0.03895282 23 3 C25.39286884 5.39286884 25.32050616 6.09447094 25.375 9.375 C25.30946237 12.76657221 25.19088515 13.73912363 23.125 16.5625 C21 18 21 18 19 18 C21.31 21.63 23.62 25.26 26 29 C22.8125 29.5 22.8125 29.5 19 29 C16.44648935 26.23158994 14 22.86112137 14 19 C11.03 19 8.06 19 5 19 C5 22.3 5 25.6 5 29 C3.35 29 1.7 29 0 29 C0 19.43 0 9.86 0 0 Z " fill="#828282" transform="translate(964,744)"/>
<path d="M0 0 C1.65 0 3.3 0 5 0 C7.95594577 6.21198756 10.13446958 12.377367 12 19 C14.31 12.73 16.62 6.46 19 0 C20.65 0 22.3 0 24 0 C29.55580866 13.6332574 29.55580866 13.6332574 30 20 C30.66 20 31.32 20 32 20 C32.0825 19.0925 32.165 18.185 32.25 17.25 C32.95983731 12.176751 34.31905771 3.68094229 38 0 C39.66617115 -0.04063832 41.33388095 -0.042721 43 0 C42.31452955 5.27219867 40.77484132 10.05687873 39.0625 15.0625 C38.79759766 15.85205078 38.53269531 16.64160156 38.25976562 17.45507812 C36.94393789 21.35032004 35.58160567 25.20261826 34 29 C32.02 29 30.04 29 28 29 C25.49289691 23.06084316 23.39938346 17.29722557 22 11 C21.20558928 12.87383903 20.41460026 14.74912886 19.625 16.625 C19.18414063 17.66914062 18.74328125 18.71328125 18.2890625 19.7890625 C17.06863678 22.82903202 16.0018609 25.88205905 15 29 C13.02 29 11.04 29 9 29 C7.71443334 25.19268645 6.43278817 21.38407809 5.15478516 17.57421875 C4.71934244 16.27795677 4.28282408 14.98205562 3.84521484 13.68652344 C3.21690673 11.82581959 2.59276741 9.96370969 1.96875 8.1015625 C1.59169922 6.98088379 1.21464844 5.86020508 0.82617188 4.70556641 C0 2 0 2 0 0 Z " fill="#828182" transform="translate(750,744)"/>
<path d="M0 0 C2.84625 -0.061875 5.6925 -0.12375 8.625 -0.1875 C9.51010254 -0.21481201 10.39520508 -0.24212402 11.30712891 -0.27026367 C16.28219813 -0.32233226 19.7215708 0.17623673 24 3 C26.48386059 6.72579089 26.3804212 8.58711402 26 13 C24.65549603 16.36125993 23.70919562 17.6276723 20.5 19.3125 C15.64765179 20.26563983 10.92788373 20.15783257 6 20 C6 22.97 6 25.94 6 29 C4.02 29 2.04 29 0 29 C0 19.43 0 9.86 0 0 Z " fill="#939292" transform="translate(604,744)"/>
<path d="M0 0 C2.31 0 4.62 0 7 0 C9.1796875 2.30078125 9.1796875 2.30078125 10.875 5.3125 C11.44992187 6.29863281 12.02484375 7.28476562 12.6171875 8.30078125 C14 11 14 11 15 14 C18.67106558 10.66990026 21.08671978 6.42941925 23.76953125 2.30078125 C24.87361328 1.16189453 24.87361328 1.16189453 26 0 C27.98 0 29.96 0 32 0 C32 9.24 32 18.48 32 28 C30.35 28 28.7 28 27 28 C27 21.73 27 15.46 27 9 C26.34 9 25.68 9 25 9 C24.773125 9.680625 24.54625 10.36125 24.3125 11.0625 C22.7054628 14.65920231 20.86907538 18.24980896 18 21 C16.68 21 15.36 21 14 21 C11.2767622 17.90037974 9.25559844 14.47015144 7 11 C6.67 16.61 6.34 22.22 6 28 C4.02 28 2.04 28 0 28 C0 18.76 0 9.52 0 0 Z " fill="#848384" transform="translate(715,798)"/>
<path d="M0 0 C3.196875 -0.12375 6.39375 -0.2475 9.6875 -0.375 C10.68612061 -0.42962402 11.68474121 -0.48424805 12.71362305 -0.54052734 C19.03667572 -0.65902485 19.03667572 -0.65902485 21.75366211 1.19970703 C23.75128118 3.42258426 24.89736386 5.484316 25.48046875 8.4140625 C24.95260481 12.39767573 24.456715 14.47985236 21.75 17.5625 C16.78343159 20.26597689 10.4527661 19.29124567 5 19 C5 21.97 5 24.94 5 28 C3.35 28 1.7 28 0 28 C0 18.76 0 9.52 0 0 Z " fill="#7F7F80" transform="translate(493,798)"/>
<path d="M0 0 C1.98 0 3.96 0 6 0 C7.91657838 2.16669788 9.28478256 3.99972534 10.75 6.4375 C13.22148633 10.88040411 13.22148633 10.88040411 17 14 C17.27328125 13.44828125 17.5465625 12.8965625 17.828125 12.328125 C18.21484375 11.55984375 18.6015625 10.7915625 19 10 C19.42796875 9.14921875 19.8559375 8.2984375 20.296875 7.421875 C21.01617188 6.09929688 21.01617188 6.09929688 21.75 4.75 C22.21921875 3.85796875 22.6884375 2.9659375 23.171875 2.046875 C23.77515625 1.37140625 24.3784375 0.6959375 25 0 C26.98 0 28.96 0 31 0 C31 9.24 31 18.48 31 28 C29.35 28 27.7 28 26 28 C25.67 22.06 25.34 16.12 25 10 C22.69 13.63 20.38 17.26 18 21 C13 20 13 20 10.98046875 17.71484375 C9.3203125 15.14322917 7.66015625 12.57161458 6 10 C5.67 15.94 5.34 21.88 5 28 C3.35 28 1.7 28 0 28 C0 18.76 0 9.52 0 0 Z " fill="#7E7D7D" transform="translate(919,798)"/>
<path d="M0 0 C5 0 5 0 7.2109375 1.90625 C8.28214844 3.19015625 8.28214844 3.19015625 9.375 4.5 C10.14457031 5.4075 10.91414062 6.315 11.70703125 7.25 C12.46371094 8.1575 13.22039063 9.065 14 10 C15.35159318 11.50231929 16.70547116 13.00258887 18.0625 14.5 C21 17.75056689 21 17.75056689 21 20 C21.66 20 22.32 20 23 20 C23 13.73 23 7.46 23 1 C24.65 1 26.3 1 28 1 C28 10.24 28 19.48 28 29 C22 29 22 29 19.65625 26.83984375 C18.9446875 25.88207031 18.233125 24.92429687 17.5 23.9375 C16.73816406 22.93976562 15.97632813 21.94203125 15.19140625 20.9140625 C14.46824219 19.95242188 13.74507812 18.99078125 13 18 C11.82583892 16.59292762 10.64066184 15.19485615 9.4375 13.8125 C8.633125 12.884375 7.82875 11.95625 7 11 C6.67 16.94 6.34 22.88 6 29 C4.02 29 2.04 29 0 29 C0 19.43 0 9.86 0 0 Z " fill="#828282" transform="translate(988,797)"/>
<path d="M0 0 C7.92 0 15.84 0 24 0 C24 1.65 24 3.3 24 5 C18.06 5 12.12 5 6 5 C6 7.31 6 9.62 6 12 C11.28 12 16.56 12 22 12 C22 13.65 22 15.3 22 17 C16.72 17 11.44 17 6 17 C6 19.31 6 21.62 6 24 C12.27 24 18.54 24 25 24 C25 25.65 25 27.3 25 29 C16.75 29 8.5 29 0 29 C0 19.43 0 9.86 0 0 Z " fill="#878787" transform="translate(447,744)"/>
<path d="M0 0 C5 0 5 0 6.58984375 1.20581055 C7.03457031 1.76051025 7.47929687 2.31520996 7.9375 2.88671875 C8.44023437 3.49580078 8.94296875 4.10488281 9.4609375 4.73242188 C9.96882813 5.37759766 10.47671875 6.02277344 11 6.6875 C12.018878 7.9429956 13.03968618 9.19692747 14.0625 10.44921875 C14.72958984 11.28972778 14.72958984 11.28972778 15.41015625 12.1472168 C17.47386013 14.55223042 19.75913362 16.75913362 22 19 C22 12.73 22 6.46 22 0 C23.65 0 25.3 0 27 0 C27 9.57 27 19.14 27 29 C22 29 22 29 19.7890625 27.09375 C18.71785156 25.80984375 18.71785156 25.80984375 17.625 24.5 C16.85542969 23.59507812 16.08585937 22.69015625 15.29296875 21.7578125 C14.53628906 20.84773437 13.77960938 19.93765625 13 19 C11.64982952 17.45483232 10.29611759 15.91274566 8.9375 14.375 C7.968125 13.26125 6.99875 12.1475 6 11 C5.67 16.94 5.34 22.88 5 29 C3.35 29 1.7 29 0 29 C0 19.43 0 9.86 0 0 Z " fill="#818081" transform="translate(478,744)"/>
<path d="M0 0 C28.05 0 56.1 0 85 0 C85 0.33 85 0.66 85 1 C57.61 1 30.22 1 2 1 C2 40.93 2 80.86 2 122 C11.24 122 20.48 122 30 122 C30 109.79 30 97.58 30 85 C30.33 85 30.66 85 31 85 C31 97.87 31 110.74 31 124 C20.77 124 10.54 124 0 124 C0 83.08 0 42.16 0 0 Z " fill="#265A94" transform="translate(802,583)"/>
<path d="M0 0 C7.92 0 15.84 0 24 0 C24 1.65 24 3.3 24 5 C17.73 5 11.46 5 5 5 C5 7.31 5 9.62 5 12 C10.28 12 15.56 12 21 12 C21 13.65 21 15.3 21 17 C16.05 17 11.1 17 6 17 C6 19.31 6 21.62 6 24 C11.94 24 17.88 24 24 24 C24 25.65 24 27.3 24 29 C16.08 29 8.16 29 0 29 C0 19.43 0 9.86 0 0 Z " fill="#878787" transform="translate(1028,744)"/>
<path d="M0 0 C1.625 0.828125 1.625 0.828125 3.875 2.328125 C3.545 3.648125 3.215 4.968125 2.875 6.328125 C-1.125 6.328125 -1.125 6.328125 -3.4375 5.265625 C-7.07264099 3.99755256 -9.41850682 4.38465401 -13.125 5.328125 C-16.33278162 7.52292295 -17.01634076 8.96140006 -18.125 12.703125 C-18.125 17.16480984 -16.94498243 18.94414608 -14.125 22.328125 C-11.75886544 23.51119228 -10.25719264 23.46167108 -7.625 23.453125 C-6.8309375 23.45570313 -6.036875 23.45828125 -5.21875 23.4609375 C-3.06581466 23.46090496 -3.06581466 23.46090496 -1.125 22.328125 C-0.46727572 19.29878009 -0.46727572 19.29878009 -0.125 16.328125 C-2.765 16.328125 -5.405 16.328125 -8.125 16.328125 C-8.125 15.008125 -8.125 13.688125 -8.125 12.328125 C-3.835 12.328125 0.455 12.328125 4.875 12.328125 C4.875 16.618125 4.875 20.908125 4.875 25.328125 C-1.1782971 28.40281559 -6.27807391 30.70962867 -13.125 29.328125 C-17.85136743 27.4639731 -20.52663386 25.33786786 -23.125 20.953125 C-24.54124774 15.81922693 -24.81105587 12.16964339 -22.9375 7.140625 C-17.71784131 -0.95884538 -9.05521108 -2.86304468 0 0 Z " fill="#828182" transform="translate(877.125,797.671875)"/>
<path d="M0 0 C5 0 5 0 7.71875 2.4140625 C8.65998194 3.47195417 9.58672349 4.54288246 10.5 5.625 C10.96019531 6.14707031 11.42039062 6.66914062 11.89453125 7.20703125 C14.9982016 10.74783827 17.98529799 14.38235759 21 18 C21.33 12.06 21.66 6.12 22 0 C23.65 0 25.3 0 27 0 C27 9.24 27 18.48 27 28 C22 28 22 28 19.28125 25.5859375 C18.34001806 24.52804583 17.41327651 23.45711754 16.5 22.375 C16.03980469 21.85292969 15.57960938 21.33085938 15.10546875 20.79296875 C12.0017984 17.25216173 9.01470201 13.61764241 6 10 C5.67 15.94 5.34 21.88 5 28 C3.35 28 1.7 28 0 28 C0 18.76 0 9.52 0 0 Z " fill="#7C7C7D" transform="translate(788,798)"/>
<path d="M0 0 C7.59 0 15.18 0 23 0 C23 1.65 23 3.3 23 5 C17.06 5 11.12 5 5 5 C5 7.31 5 9.62 5 12 C10.28 12 15.56 12 21 12 C21 13.65 21 15.3 21 17 C15.72 17 10.44 17 5 17 C5 19.31 5 21.62 5 24 C11.27 24 17.54 24 24 24 C24 25.65 24 27.3 24 29 C16.08 29 8.16 29 0 29 C0 19.43 0 9.86 0 0 Z " fill="#888788" transform="translate(711,744)"/>
<path d="M0 0 C7.59 0 15.18 0 23 0 C23 1.65 23 3.3 23 5 C17.06 5 11.12 5 5 5 C5 7.31 5 9.62 5 12 C10.28 12 15.56 12 21 12 C21 13.65 21 15.3 21 17 C15.72 17 10.44 17 5 17 C5 19.31 5 21.62 5 24 C11.27 24 17.54 24 24 24 C24 25.65 24 27.3 24 29 C16.08 29 8.16 29 0 29 C0 19.43 0 9.86 0 0 Z " fill="#858585" transform="translate(542,744)"/>
<path d="M0 0 C7.92 0 15.84 0 24 0 C24 1.65 24 3.3 24 5 C18.06 5 12.12 5 6 5 C6 7.31 6 9.62 6 12 C11.28 12 16.56 12 22 12 C22 13.65 22 15.3 22 17 C16.39 17 10.78 17 5 17 C5.33 19.31 5.66 21.62 6 24 C11.94 24.33 17.88 24.66 24 25 C24 26.32 24 27.64 24 29 C16.08 29 8.16 29 0 29 C0 19.43 0 9.86 0 0 Z " fill="#848383" transform="translate(614,797)"/>
<path d="M0 0 C2.31 0 4.62 0 7 0 C8.71383583 3.66393183 10.42269839 7.33013651 12.12695312 10.99853516 C12.70761521 12.24656893 13.28964069 13.49396929 13.87304688 14.74072266 C14.71060247 16.5312114 15.54287966 18.3241663 16.375 20.1171875 C17.12910156 21.73536377 17.12910156 21.73536377 17.8984375 23.38623047 C19 26 19 26 19 28 C17.35 28 15.7 28 14 28 C13.01 26.02 12.02 24.04 11 22 C6.05 22 1.1 22 -4 22 C-4.99 23.98 -5.98 25.96 -7 28 C-8.65 28 -10.3 28 -12 28 C-9.9770602 21.35233644 -7.34927071 15.18055813 -4.3125 8.9375 C-3.89677734 8.07189453 -3.48105469 7.20628906 -3.05273438 6.31445312 C-2.03989913 4.20729015 -1.0222841 2.1025906 0 0 Z " fill="#7F7F7F" transform="translate(832,798)"/>
<path d="M0 0 C1.98 0 3.96 0 6 0 C6.77923828 1.55847656 6.77923828 1.55847656 7.57421875 3.1484375 C7.91001953 3.81987793 8.24582031 4.49131836 8.59179688 5.18310547 C9.32408829 6.64801462 10.05585663 8.11318537 10.78710938 9.57861328 C12.39444879 12.79828827 14.0072354 16.01416144 15.64453125 19.21875 C16.09183594 20.0953125 16.53914062 20.971875 17 21.875 C17.391875 22.63554688 17.78375 23.39609375 18.1875 24.1796875 C19 26 19 26 19 28 C17.02 28 15.04 28 13 28 C12.34 25.69 11.68 23.38 11 21 C8.55764178 21.00600826 6.12806579 21.05328457 3.6875 21.125 C2.65206055 21.12113281 2.65206055 21.12113281 1.59570312 21.1171875 C-0.70700692 21.14483876 -0.70700692 21.14483876 -4 22 C-6.0645852 24.91718568 -6.0645852 24.91718568 -7 28 C-8.65 28 -10.3 28 -12 28 C-11.38253379 24.12624436 -10.2081036 21.00287982 -8.49609375 17.48046875 C-8.00302734 16.45888672 -7.50996094 15.43730469 -7.00195312 14.38476562 C-6.48568359 13.32966797 -5.96941406 12.27457031 -5.4375 11.1875 C-4.65729492 9.57584961 -4.65729492 9.57584961 -3.86132812 7.93164062 C-2.5792955 5.28524301 -1.29203889 2.6415229 0 0 Z " fill="#7C7B7C" transform="translate(764,798)"/>
<path d="M0 0 C1.65515625 0.00193359 1.65515625 0.00193359 3.34375 0.00390625 C6.75878998 0.47305159 8.70402612 1.47092882 11.5 3.4375 C10.84 4.7575 10.18 6.0775 9.5 7.4375 C8.51 7.086875 7.52 6.73625 6.5 6.375 C2.23634087 5.12816308 -1.16160688 5.6763784 -5.5 6.4375 C-5.5 7.7575 -5.5 9.0775 -5.5 10.4375 C-4.45199219 10.69144531 -3.40398438 10.94539062 -2.32421875 11.20703125 C-0.94517401 11.55413775 0.43372478 11.90182444 1.8125 12.25 C2.50279297 12.41564453 3.19308594 12.58128906 3.90429688 12.75195312 C10.49061361 14.43830475 10.49061361 14.43830475 12.5 17.4375 C13.0625 20.8125 13.0625 20.8125 12.5 24.4375 C10.04438235 27.46455068 7.2004871 29.2040043 3.5 30.4375 C-1.9679743 30.86636073 -6.70073107 30.11847092 -11.5 27.4375 C-12.16 26.4475 -12.82 25.4575 -13.5 24.4375 C-12.18 23.4475 -10.86 22.4575 -9.5 21.4375 C-8.51 21.953125 -7.52 22.46875 -6.5 23 C-2.18506709 24.88833465 0.94341772 24.31684044 5.5 23.4375 C5.5 22.1175 5.5 20.7975 5.5 19.4375 C4.53578125 19.19515625 3.5715625 18.9528125 2.578125 18.703125 C0.68320312 18.20039062 0.68320312 18.20039062 -1.25 17.6875 C-2.50296875 17.36265625 -3.7559375 17.0378125 -5.046875 16.703125 C-8.57579959 15.40971825 -10.26800926 14.42848004 -12.5 11.4375 C-12.5625 7.9375 -12.5625 7.9375 -11.5 4.4375 C-7.78428488 0.66803132 -5.23648369 -0.09176081 0 0 Z " fill="#858485" transform="translate(692.5,743.5625)"/>
<path d="M0 0 C1.65 0 3.3 0 5 0 C5 4.29 5 8.58 5 13 C6.175625 11.96875 7.35125 10.9375 8.5625 9.875 C9.2946875 9.24207031 10.026875 8.60914063 10.78125 7.95703125 C12.16466196 6.73680344 13.52408895 5.48812498 14.84375 4.19921875 C18.07347933 1.1236356 19.32565854 0.064223 23.9375 -0.375 C24.948125 -0.25125 25.95875 -0.1275 27 0 C27 2 27 2 25.390625 3.62109375 C24.68421875 4.22050781 23.9778125 4.81992187 23.25 5.4375 C22.55390625 6.03433594 21.8578125 6.63117187 21.140625 7.24609375 C19.13326411 8.89081098 17.08929688 10.46126108 15 12 C16.40171536 15.11569405 18.08408908 17.4114956 20.375 19.9375 C23.0168515 22.88821097 25.56050498 25.87744637 28 29 C24.91650438 29.43277132 22.97840666 29.68612509 20 29 C15.96893856 25.7252499 13.1742095 21.68616028 11 17 C10.38125 17.495 9.7625 17.99 9.125 18.5 C7 20 7 20 5 20 C5 22.97 5 25.94 5 29 C3.35 29 1.7 29 0 29 C0 19.43 0 9.86 0 0 Z " fill="#7E7E7E" transform="translate(866,744)"/>
<path d="M0 0 C7.59 0 15.18 0 23 0 C23 1.32 23 2.64 23 4 C17.06 4 11.12 4 5 4 C5 6.31 5 8.62 5 11 C10.28 11 15.56 11 21 11 C21 12.65 21 14.3 21 16 C15.72 16 10.44 16 5 16 C5 18.64 5 21.28 5 24 C10.94 24 16.88 24 23 24 C23 25.32 23 26.64 23 28 C15.41 28 7.82 28 0 28 C0 18.76 0 9.52 0 0 Z " fill="#7F7E7E" transform="translate(889,798)"/>
<path d="M0 0 C2.76101146 1.82109266 4.52100548 3.04201097 6 6 C6.2262475 11.0069555 5.69507747 14.16929766 2.4375 18.0625 C-2.03699068 20.58448566 -3.93088294 20.72415958 -9 20 C-11.8100346 18.20636089 -13.50940468 16.98119065 -15 14 C-15.42071592 10.94079426 -15.48514117 8.0532254 -15 5 C-10.47676143 -0.71356451 -6.99950311 -1.76998929 0 0 Z " fill="#F9F9F9" transform="translate(946,749)"/>
<path d="M0 0 C7.26 0 14.52 0 22 0 C22 1.32 22 2.64 22 4 C16.39 4 10.78 4 5 4 C5 6.31 5 8.62 5 11 C10.28 11 15.56 11 21 11 C21 12.65 21 14.3 21 16 C15.39 16 9.78 16 4 16 C4 18.64 4 21.28 4 24 C10.27 24 16.54 24 23 24 C23 25.32 23 26.64 23 28 C15.41 28 7.82 28 0 28 C0 18.76 0 9.52 0 0 Z " fill="#828282" transform="translate(959,798)"/>
<path d="M0 0 C2.1875 2.0625 2.1875 2.0625 3.1875 4.0625 C3.23009733 8.47558343 2.99114944 12.02553299 0.25 15.5625 C-3.5508957 18.32678778 -6.10830805 18.38142827 -10.8125 18.0625 C-14.62465241 16.36821004 -16.29558675 14.91365874 -17.8125 11.0625 C-18.0420983 6.71543877 -17.57131218 3.10913749 -15 -0.4375 C-9.90958716 -3.9280688 -5.09205162 -3.50785778 0 0 Z " fill="#FAFAFA" transform="translate(818.8125,750.9375)"/>
<path d="M0 0 C4.94768662 0.05320093 7.77611928 1.77611928 11.25 5.25 C11.59750488 9.48955952 11.68481224 12.19729669 10.0625 16.125 C7.20252838 19.47807018 4.57690309 20.05237614 0.3125 20.6875 C-3.01967821 20.21147454 -5.05796317 19.2452842 -7.5390625 16.94140625 C-9.877365 13.67532566 -10.32615381 10.1763815 -9.75 6.25 C-7.375 3.25 -7.375 3.25 -4.75 1.25 C-3.75 0.25 -3.75 0.25 0 0 Z " fill="#FBFBFB" transform="translate(568.75,801.75)"/>
<path d="M0 0 C2.45827834 1.08370667 3.94448574 2.22225793 6 4 C5.34 5.32 4.68 6.64 4 8 C2.7625 7.505 2.7625 7.505 1.5 7 C-3.73368542 5.50466131 -7.91517143 5.00101965 -13 7.4375 C-15.55615222 10.71257003 -15.61115827 12.81039427 -15.34375 16.875 C-14.86323199 19.84547497 -14.44357599 21.16731801 -12 23 C-5.8676996 24.48021044 -1.01382699 23.68442839 5 22 C5.66 22.99 6.32 23.98 7 25 C1.29766223 28.92827713 -2.98698795 30.89846418 -10 30 C-14.08306247 28.66319663 -17.07215853 27.22219118 -19.69921875 23.76171875 C-22.07221247 18.72356091 -21.74747949 13.43494433 -21 8 C-18.8125 4.875 -18.8125 4.875 -16 3 C-15.29875 2.401875 -14.5975 1.80375 -13.875 1.1875 C-9.31482581 -0.69605021 -4.85666561 -0.67453689 0 0 Z " fill="#848384" transform="translate(664,797)"/>
<path d="M0 0 C2.50953858 1.07817213 3.93524005 2.16465782 6 4 C5.34 5.32 4.68 6.64 4 8 C2.9790625 7.5359375 2.9790625 7.5359375 1.9375 7.0625 C-2.84334888 5.33325679 -6.41099844 4.46033909 -11.3125 6.125 C-14.41080284 8.28660663 -15.23142498 9.32791933 -16 13 C-15.85667594 16.51143953 -15.39942622 18.43158576 -13.375 21.3125 C-10.16335009 23.59446178 -7.9265496 23.93230087 -4 24 C-1.99218823 23.01577854 0.00892752 22.01765927 2 21 C4.375 21.8125 4.375 21.8125 6 23 C4.99782403 26.22923368 3.94375261 27.0339828 1 28.8125 C-3.70595889 30.60056789 -8.17371774 30.15480351 -13 29 C-17.08872169 27.06714974 -18.61623547 25.66519184 -20.875 21.75 C-22.54565428 16.18115239 -23.07792569 12.15585138 -20.375 6.75 C-14.42503251 -0.13943604 -8.84512742 -1.25668477 0 0 Z " fill="#818181" transform="translate(1016,744)"/>
<path d="M0 0 C7.92 0 15.84 0 24 0 C24 1.65 24 3.3 24 5 C18.06 5 12.12 5 6 5 C6 7.64 6 10.28 6 13 C10.95 13 15.9 13 21 13 C21 14.32 21 15.64 21 17 C16.05 17 11.1 17 6 17 C6 20.96 6 24.92 6 29 C4.02 29 2.04 29 0 29 C0 19.43 0 9.86 0 0 Z " fill="#858485" transform="translate(898,744)"/>
<path d="M0 0 C8.91 0 17.82 0 27 0 C27 1.65 27 3.3 27 5 C23.37 5 19.74 5 16 5 C16 12.92 16 20.84 16 29 C14.35 29 12.7 29 11 29 C11 21.08 11 13.16 11 5 C7.37 5 3.74 5 0 5 C0 3.35 0 1.7 0 0 Z " fill="#838383" transform="translate(510,744)"/>
<path d="M0 0 C1.98 0 3.96 0 6 0 C6.08767555 3.37483413 6.14061628 6.74937215 6.1875 10.125 C6.21263672 11.07632813 6.23777344 12.02765625 6.26367188 13.0078125 C6.31970876 18.38735347 6.23358224 22.45118544 3 27 C-0.59296029 29.61373136 -3.66050869 29.060998 -7.87109375 28.4921875 C-10.47134395 27.89102874 -12.11627506 26.88372494 -14 25 C-13.34 23.68 -12.68 22.36 -12 21 C-8.125 21.875 -8.125 21.875 -7 23 C-4.5 23.16666667 -4.5 23.16666667 -2 23 C-0.34920558 21.34920558 -0.77450553 19.36263821 -0.68359375 17.08984375 C-0.64169922 16.10048828 -0.59980469 15.11113281 -0.55664062 14.09179688 C-0.49766602 12.53041992 -0.49766602 12.53041992 -0.4375 10.9375 C-0.39431641 9.89271484 -0.35113281 8.84792969 -0.30664062 7.77148438 C-0.20018775 5.18113116 -0.0981724 2.59067814 0 0 Z " fill="#848383" transform="translate(601,798)"/>
<path d="M0 0 C8.58 0 17.16 0 26 0 C26 1.32 26 2.64 26 4 C22.37 4 18.74 4 15 4 C15 11.92 15 19.84 15 28 C13.35 28 11.7 28 10 28 C10 20.08 10 12.16 10 4 C6.7 4 3.4 4 0 4 C0 2.68 0 1.36 0 0 Z " fill="#7F7F7F" transform="translate(1021,798)"/>
<path d="M0 0 C8.58 0 17.16 0 26 0 C26 1.32 26 2.64 26 4 C22.37 4 18.74 4 15 4 C15 11.92 15 19.84 15 28 C13.35 28 11.7 28 10 28 C10 20.08 10 12.16 10 4 C6.7 4 3.4 4 0 4 C0 2.68 0 1.36 0 0 Z " fill="#828181" transform="translate(673,798)"/>
<path d="M0 0 C5.94 0 11.88 0 18 0 C18.33 0.66 18.66 1.32 19 2 C15.78817851 3.90608098 13.46117397 4.22266247 9.75 4.125 C7.39875 4.063125 7.39875 4.063125 5 4 C5 7.63 5 11.26 5 15 C8.63 15 12.26 15 16 15 C16 15.33 16 15.66 16 16 C11.05 16.495 11.05 16.495 6 17 C8.64 17.33 11.28 17.66 14 18 C14 18.33 14 18.66 14 19 C11.03 19 8.06 19 5 19 C5 22.3 5 25.6 5 29 C3.35 29 1.7 29 0 29 C0 19.43 0 9.86 0 0 Z " fill="#7B7A7A" transform="translate(636,744)"/>
<path d="M0 0 C4.62 0 9.24 0 14 0 C14 0.99 14 1.98 14 3 C11.03 3 8.06 3 5 3 C5 6.96 5 10.92 5 15 C7.50651042 14.90234375 10.01302083 14.8046875 12.51953125 14.70703125 C15.41647515 15.04918998 16.22555028 15.75393573 18 18 C15.35541621 19.32229189 13.32238699 19.09677194 10.375 19.0625 C9.37210938 19.05347656 8.36921875 19.04445313 7.3359375 19.03515625 C6.56507813 19.02355469 5.79421875 19.01195312 5 19 C5 21.97 5 24.94 5 28 C3.35 28 1.7 28 0 28 C0 18.76 0 9.52 0 0 Z " fill="#7B7A7B" transform="translate(605,745)"/>
<path d="M0 0 C2.18975773 3.28463659 2.99806563 6.20696275 4 10 C0.08739673 11.51075416 -3.83069813 13.00671908 -7.75 14.5 C-8.86117187 14.92925781 -9.97234375 15.35851562 -11.1171875 15.80078125 C-12.18710937 16.20683594 -13.25703125 16.61289062 -14.359375 17.03125 C-15.34389648 17.40830078 -16.32841797 17.78535156 -17.34277344 18.17382812 C-20 19 -20 19 -24 19 C-23.95359375 19.83660156 -23.9071875 20.67320312 -23.859375 21.53515625 C-23.56175281 31.13347179 -25.1350138 38.8678565 -28 48 C-29.05840329 44.74280114 -28.88488502 42.62788877 -28.125 39.3125 C-26.57585844 31.60866089 -26.34886937 23.83119937 -26 16 C-17.53654107 11.48925541 -9.07320405 8.03334928 0 5 C0 3.35 0 1.7 0 0 Z " fill="#2A8FD1" transform="translate(989,313)"/>
<path d="M0 0 C1.98 0 3.96 0 6 0 C6 9.57 6 19.14 6 29 C4.02 29 2.04 29 0 29 C0 19.43 0 9.86 0 0 Z " fill="#878686" transform="translate(668,744)"/>
<path d="M0 0 C2.10353495 -0.0810206 4.20795952 -0.13919907 6.3125 -0.1875 C7.48425781 -0.22230469 8.65601563 -0.25710938 9.86328125 -0.29296875 C13 0 13 0 14.92578125 1.3515625 C16 3 16 3 15.875 5.5625 C15 8 15 8 12 10 C9.08203125 10.1953125 9.08203125 10.1953125 5.8125 10.125 C4.72582031 10.10695313 3.63914062 10.08890625 2.51953125 10.0703125 C1.27236328 10.03550781 1.27236328 10.03550781 0 10 C0 6.7 0 3.4 0 0 Z " fill="#F3F3F3" transform="translate(577,749)"/>
<path d="M0 0 C1.93719378 -0.05406122 3.87481921 -0.09282025 5.8125 -0.125 C6.89144531 -0.14820313 7.97039063 -0.17140625 9.08203125 -0.1953125 C12 0 12 0 15 2 C15.42651028 4.77231681 15.47648428 6.30901592 13.86328125 8.6484375 C11.1685389 10.60311434 9.09593222 10.29341717 5.8125 10.1875 C4.72582031 10.16042969 3.63914062 10.13335938 2.51953125 10.10546875 C1.27236328 10.05326172 1.27236328 10.05326172 0 10 C0 6.7 0 3.4 0 0 Z " fill="#F6F6F6" transform="translate(969,749)"/>
<path d="M0 0 C1.93719378 -0.05406122 3.87481921 -0.09282025 5.8125 -0.125 C6.89144531 -0.14820313 7.97039063 -0.17140625 9.08203125 -0.1953125 C12 0 12 0 15 2 C15.42651028 4.77231681 15.47648428 6.30901592 13.86328125 8.6484375 C11.1685389 10.60311434 9.09593222 10.29341717 5.8125 10.1875 C4.72582031 10.16042969 3.63914062 10.13335938 2.51953125 10.10546875 C1.27236328 10.05326172 1.27236328 10.05326172 0 10 C0 6.7 0 3.4 0 0 Z " fill="#F6F6F6" transform="translate(641,749)"/>
<path d="M0 0 C1.93681161 -0.08107583 3.8745934 -0.13922475 5.8125 -0.1875 C6.89144531 -0.22230469 7.97039063 -0.25710938 9.08203125 -0.29296875 C12 0 12 0 13.89453125 1.3515625 C15 3 15 3 14.875 5.5625 C14 8 14 8 11 10 C8.30078125 10.1953125 8.30078125 10.1953125 5.3125 10.125 C3.82169922 10.09792969 3.82169922 10.09792969 2.30078125 10.0703125 C1.54152344 10.04710937 0.78226563 10.02390625 0 10 C0 6.7 0 3.4 0 0 Z " fill="#F9F8F8" transform="translate(839,749)"/>
<path d="M0 0 C1.93681161 -0.08107583 3.8745934 -0.13922475 5.8125 -0.1875 C6.89144531 -0.22230469 7.97039063 -0.25710938 9.08203125 -0.29296875 C12 0 12 0 13.8984375 1.3515625 C15 3 15 3 14.8125 5.5625 C14 8 14 8 12 10 C9.1796875 10.1953125 9.1796875 10.1953125 5.875 10.125 C4.77929688 10.10695313 3.68359375 10.08890625 2.5546875 10.0703125 C1.71164062 10.04710937 0.86859375 10.02390625 0 10 C0 6.7 0 3.4 0 0 Z " fill="#FBFBFB" transform="translate(610,749)"/>
<path d="M0 0 C7.92 0 15.84 0 24 0 C24 1.65 24 3.3 24 5 C18.39 5 12.78 5 7 5 C7 4.67 7 4.34 7 4 C9.64 4 12.28 4 15 4 C15 3.34 15 2.68 15 2 C10.71 2 6.42 2 2 2 C2 10.91 2 19.82 2 29 C1.34 29 0.68 29 0 29 C0 19.43 0 9.86 0 0 Z " fill="#919090" transform="translate(614,797)"/>
<path d="M0 0 C10.02244165 -0.62208259 10.02244165 -0.62208259 13.75 1.75 C15 4 15 4 14.875 6.125 C14 8 14 8 12 10 C9.1796875 10.1953125 9.1796875 10.1953125 5.875 10.125 C4.77929688 10.10695313 3.68359375 10.08890625 2.5546875 10.0703125 C1.71164062 10.04710937 0.86859375 10.02390625 0 10 C0 6.7 0 3.4 0 0 Z " fill="#F8F8F8" transform="translate(498,802)"/>
<path d="M0 0 C1.65 0.33 3.3 0.66 5 1 C4.79375 2.2375 4.5875 3.475 4.375 4.75 C3.92331586 8.20477328 4.14175964 9.98035942 6 13 C5.67 13.66 5.34 14.32 5 15 C2.98177083 14.70703125 0.96354167 14.4140625 -1.0546875 14.12109375 C-3.08140667 13.8315703 -3.08140667 13.8315703 -5 15 C-6.99960012 15.039992 -9.00047242 15.04346799 -11 15 C-11 14.01 -11 13.02 -11 12 C-8.35261084 10.5393715 -7.10551666 10 -4 10 C-4.185625 9.38125 -4.37125 8.7625 -4.5625 8.125 C-5 6 -5 6 -4 4 C-2.68 4.33 -1.36 4.66 0 5 C0 3.35 0 1.7 0 0 Z " fill="#868586" transform="translate(1090,758)"/>
<path d="M0 0 C1.93681161 -0.08107583 3.8745934 -0.13922475 5.8125 -0.1875 C6.89144531 -0.22230469 7.97039063 -0.25710938 9.08203125 -0.29296875 C12 0 12 0 13.90234375 1.34765625 C15 3 15 3 14.75 5.625 C14 8 14 8 13 9 C10.81360547 9.07258946 8.62499611 9.08373783 6.4375 9.0625 C4.64119141 9.04896484 4.64119141 9.04896484 2.80859375 9.03515625 C1.88175781 9.02355469 0.95492187 9.01195312 0 9 C0 6.03 0 3.06 0 0 Z " fill="#F8F8F9" transform="translate(529,802)"/>
<path d="M0 0 C0.33 0 0.66 0 1 0 C1.33 7.59 1.66 15.18 2 23 C2.33 20.69 2.66 18.38 3 16 C3.33 16 3.66 16 4 16 C4 18.64 4 21.28 4 24 C10.27 24 16.54 24 23 24 C23 25.32 23 26.64 23 28 C15.41 28 7.82 28 0 28 C0 18.76 0 9.52 0 0 Z " fill="#767575" transform="translate(959,798)"/>
<path d="M0 0 C1.32 0.33 2.64 0.66 4 1 C4 8.92 4 16.84 4 25 C2.68 25 1.36 25 0 25 C0 16.75 0 8.5 0 0 Z " fill="#797879" transform="translate(684,801)"/>
<path d="M0 0 C0.66 0.33 1.32 0.66 2 1 C1.73445312 1.51304687 1.46890625 2.02609375 1.1953125 2.5546875 C-2.72081863 11.04440243 -3.23850397 19.80192958 -4 29 C-4.33 29 -4.66 29 -5 29 C-5 27.02 -5 25.04 -5 23 C-5.66 23 -6.32 23 -7 23 C-7.66 24.32 -8.32 25.64 -9 27 C-8.34551412 17.01909026 -5.273488 8.47524857 0 0 Z " fill="#177EC5" transform="translate(615,353)"/>
<path d="M0 0 C0 0.66 0 1.32 0 2 C-0.72703125 2.29132813 -1.4540625 2.58265625 -2.203125 2.8828125 C-8.83940275 5.58837189 -15.24543356 8.55175475 -21.6015625 11.86328125 C-24 13 -24 13 -26 13 C-26 12.34 -26 11.68 -26 11 C-27.98 11.33 -29.96 11.66 -32 12 C-29.2472826 9.76875525 -26.79497205 8.38517206 -23.4453125 7.24609375 C-22.58292969 6.94896484 -21.72054687 6.65183594 -20.83203125 6.34570312 C-19.93871094 6.04599609 -19.04539062 5.74628906 -18.125 5.4375 C-17.23941406 5.13392578 -16.35382812 4.83035156 -15.44140625 4.51757812 C-13.72837317 3.93167486 -12.01390394 3.34994941 -10.29785156 2.77294922 C-8.35908773 2.12078961 -6.42506501 1.45456038 -4.4921875 0.78515625 C-2 0 -2 0 0 0 Z " fill="#17ABEF" transform="translate(702,270)"/>
<path d="M0 0 C4.26149279 0.15219617 7.0429738 3.24458922 10 6 C10 6.66 10 7.32 10 8 C6.47940432 9.17353189 3.693507 9.20146402 0 9 C-2 7 -2 7 -2.25 4.5 C-2 2 -2 2 0 0 Z " fill="#F5F5F5" transform="translate(1076,760)"/>
<path d="M0 0 C0.33 0.99 0.66 1.98 1 3 C-0.37009655 5.20842046 -1.74749751 7.11599451 -3.375 9.125 C-4.09103394 10.02532959 -4.09103394 10.02532959 -4.8215332 10.94384766 C-11.57803107 19.2126797 -19.32855462 26.59206208 -27 34 C-27.99 33.67 -28.98 33.34 -30 33 C-29.35933594 32.43152344 -28.71867188 31.86304688 -28.05859375 31.27734375 C-25.35825006 28.86675378 -22.67519853 26.4384553 -20 24 C-19.39414062 23.45085937 -18.78828125 22.90171875 -18.1640625 22.3359375 C-11.28864496 15.79590618 -5.25319832 7.87979749 0 0 Z " fill="#286EB8" transform="translate(920,372)"/>
<path d="M0 0 C0.66 0 1.32 0 2 0 C2.11459026 7.41017023 1.91160286 14.64206267 1 22 C0.01 21.01 -0.98 20.02 -2 19 C-2.99 19.66 -3.98 20.32 -5 21 C-4.70996094 19.98292969 -4.70996094 19.98292969 -4.4140625 18.9453125 C-2.65857742 12.67075691 -1.18137708 6.40723336 0 0 Z " fill="#2C9AD8" transform="translate(920,296)"/>
<path d="M0 0 C1.794375 0.7115625 1.794375 0.7115625 3.625 1.4375 C7.06414238 2.73482773 10.33895604 3.54236951 14 4 C12.02616929 6.83738165 10.63095829 7.09074796 7.1875 7.9375 C3.95182665 8.26046924 2.20232984 7.87261168 -0.5 6.0625 C-1.325 5.381875 -2.15 4.70125 -3 4 C-2.01 2.68 -1.02 1.36 0 0 Z " fill="#797878" transform="translate(682,765)"/>
<path d="M0 0 C2.86453858 3.41016497 4.34703566 6.90694544 6 11 C2.7 11 -0.6 11 -4 11 C-3.39301257 6.87248551 -1.96189209 3.6678852 0 0 Z " fill="#F2F2F2" transform="translate(835,804)"/>
<path d="M0 0 C0.66 0 1.32 0 2 0 C2.67154933 1.28913487 3.33708859 2.58140204 4 3.875 C4.37125 4.59429688 4.7425 5.31359375 5.125 6.0546875 C6 8 6 8 6 10 C2.7 10 -0.6 10 -4 10 C-2.8905928 6.51329166 -1.73662334 3.22515763 0 0 Z " fill="#F4F4F4" transform="translate(766,805)"/>
<path d="M0 0 C3.83901868 0.54843124 5.36163505 2.2765265 8 5 C8.99 5.33 9.98 5.66 11 6 C11 6.66 11 7.32 11 8 C1.40546697 7.40546697 1.40546697 7.40546697 -2 4 C-1.34 2.68 -0.68 1.36 0 0 Z " fill="#828182" transform="translate(589,819)"/>
<path d="M0 0 C0.66 0 1.32 0 2 0 C2 0.66 2 1.32 2 2 C2.66 2.33 3.32 2.66 4 3 C4.3125 5.3125 4.3125 5.3125 4 8 C0.44035648 11.03616654 -2.42411796 11.31924758 -7 11 C-7 10.01 -7 9.02 -7 8 C-4.35261084 6.5393715 -3.10551666 6 0 6 C-0.185625 5.38125 -0.37125 4.7625 -0.5625 4.125 C-1 2 -1 2 0 0 Z " fill="#767576" transform="translate(1086,762)"/>
<path d="M0 0 C2.475 0.495 2.475 0.495 5 1 C4.01 1.495 4.01 1.495 3 2 C3.20496094 2.90621094 3.40992188 3.81242187 3.62109375 4.74609375 C6.67851623 18.57032457 6.67851623 18.57032457 7 25 C6.34 25.66 5.68 26.32 5 27 C4.80664062 25.72125 4.61328125 24.4425 4.4140625 23.125 C4.15123735 21.41663655 3.88820549 19.70830489 3.625 18 C3.49867188 17.16082031 3.37234375 16.32164062 3.2421875 15.45703125 C2.42882079 10.21081598 1.36582004 5.13073268 0 0 Z " fill="#20B5E8" transform="translate(935,286)"/>
<path d="M0 0 C4.95 0 9.9 0 15 0 C15 0.99 15 1.98 15 3 C9.72 3 4.44 3 -1 3 C-0.67 2.01 -0.34 1.02 0 0 Z " fill="#767576" transform="translate(964,810)"/>
<path d="M0 0 C0.66 0.33 1.32 0.66 2 1 C1.58427734 1.94359375 1.58427734 1.94359375 1.16015625 2.90625 C-1.14956729 8.36410208 -2.56208196 13.08810648 -3 19 C-5.01191653 15.98212521 -5.7455294 14.55739515 -6 11 C-4.78515625 8.10546875 -4.78515625 8.10546875 -3.0625 5.1875 C-2.49660156 4.21167969 -1.93070313 3.23585938 -1.34765625 2.23046875 C-0.90292969 1.49441406 -0.45820312 0.75835937 0 0 Z " fill="#2E91D3" transform="translate(615,353)"/>
<path d="M0 0 C5.94 0 11.88 0 18 0 C17.67 1.65 17.34 3.3 17 5 C13.37 5 9.74 5 6 5 C6.99 4.01 7.98 3.02 9 2 C6.03 1.67 3.06 1.34 0 1 C0 0.67 0 0.34 0 0 Z " fill="#969596" transform="translate(572,744)"/>
<path d="M0 0 C5.28 0 10.56 0 16 0 C16 1.32 16 2.64 16 4 C13.36 4 10.72 4 8 4 C8 3.01 8 2.02 8 1 C5.36 1 2.72 1 0 1 C0 0.67 0 0.34 0 0 Z " fill="#757575" transform="translate(718,769)"/>
<path d="M0 0 C1.67542976 0.28604898 3.34385343 0.61781233 5 1 C5.625 2.875 5.625 2.875 6 5 C5.34 5.66 4.68 6.32 4 7 C1.875 6.625 1.875 6.625 0 6 C-0.38218767 4.34385343 -0.71395102 2.67542976 -1 1 C-0.67 0.67 -0.34 0.34 0 0 Z " fill="#F3F2F3" transform="translate(1079,748)"/>
<path d="M0 0 C-1.12019531 0.39832031 -2.24039063 0.79664063 -3.39453125 1.20703125 C-4.86734719 1.74174786 -6.33999474 2.27692844 -7.8125 2.8125 C-8.55048828 3.07353516 -9.28847656 3.33457031 -10.04882812 3.60351562 C-10.76103516 3.86455078 -11.47324219 4.12558594 -12.20703125 4.39453125 C-12.8616333 4.63018799 -13.51623535 4.86584473 -14.19067383 5.10864258 C-16.22835318 6.1124973 -17.48653345 7.32269404 -19 9 C-21.475 8.01 -21.475 8.01 -24 7 C-23.46375 6.896875 -22.9275 6.79375 -22.375 6.6875 C-19.36112493 5.81506248 -16.78261348 4.44695901 -14 3 C-5.39138616 -1.4764792 -5.39138616 -1.4764792 0 0 Z " fill="#41C4EF" transform="translate(973,285)"/>
<path d="M0 0 C0.66 0 1.32 0 2 0 C2.36363636 5.45454545 2.36363636 5.45454545 0.75 7.875 C-1 9 -1 9 -5 9 C-3.50079488 5.88626628 -1.91847864 2.87771795 0 0 Z " fill="#706F70" transform="translate(1088,747)"/>
<path d="M0 0 C0 0.66 0 1.32 0 2 C-1.93694678 2.81381795 -3.87457711 3.62600916 -5.8125 4.4375 C-7.43091797 5.11619141 -7.43091797 5.11619141 -9.08203125 5.80859375 C-11.0295126 6.60375013 -13.00438943 7.33479648 -15 8 C-15 7.34 -15 6.68 -15 6 C-15.66 5.67 -16.32 5.34 -17 5 C-14.54285453 4.16301614 -12.08441143 3.33027576 -9.625 2.5 C-8.92632813 2.26152344 -8.22765625 2.02304687 -7.5078125 1.77734375 C-2.2265625 0 -2.2265625 0 0 0 Z " fill="#3AB3EE" transform="translate(702,270)"/>
<path d="M0 0 C0.33 0.99 0.66 1.98 1 3 C-0.57300414 5.36097631 -2.15210242 7.49902461 -3.9375 9.6875 C-4.41896484 10.29400391 -4.90042969 10.90050781 -5.39648438 11.52539062 C-6.58849658 13.02425746 -7.79308951 14.51310325 -9 16 C-9.99 15.67 -10.98 15.34 -12 15 C-11.46890625 14.41992188 -10.9378125 13.83984375 -10.390625 13.2421875 C-6.55640802 9.00215924 -2.99783758 4.87148607 0 0 Z " fill="#3687CC" transform="translate(920,372)"/>
<path d="M0 0 C0.33 0.99 0.66 1.98 1 3 C-2.96 6.96 -6.92 10.92 -11 15 C-11.99 14.67 -12.98 14.34 -14 14 C-13.15695312 13.24074219 -12.31390625 12.48148437 -11.4453125 11.69921875 C-10.33838791 10.69548204 -9.23162553 9.69156642 -8.125 8.6875 C-7.56941406 8.18798828 -7.01382813 7.68847656 -6.44140625 7.17382812 C-3.93211977 4.8912844 -1.89093222 2.83639832 0 0 Z " fill="#2077BC" transform="translate(883,364)"/>
<path d="M0 0 C1.07894531 0.03480469 2.15789063 0.06960938 3.26953125 0.10546875 C4.35621094 0.13253906 5.44289063 0.15960937 6.5625 0.1875 C7.80966797 0.23970703 7.80966797 0.23970703 9.08203125 0.29296875 C9.08203125 1.28296875 9.08203125 2.27296875 9.08203125 3.29296875 C4.13203125 3.29296875 -0.81796875 3.29296875 -5.91796875 3.29296875 C-2.91796875 0.29296875 -2.91796875 0.29296875 0 0 Z " fill="#777677" transform="translate(553.91796875,756.70703125)"/>
<path d="M0 0 C2.8203125 -0.29296875 2.8203125 -0.29296875 6.125 -0.1875 C7.76855469 -0.14689453 7.76855469 -0.14689453 9.4453125 -0.10546875 C10.28835938 -0.07066406 11.13140625 -0.03585937 12 0 C11.67 1.32 11.34 2.64 11 4 C6.71 3.67 2.42 3.34 -2 3 C-1.34 2.01 -0.68 1.02 0 0 Z " fill="#787879" transform="translate(623,810)"/>
<path d="M0 0 C2.4375 0.375 2.4375 0.375 5 1 C5.33 1.66 5.66 2.32 6 3 C4.68 4.65 3.36 6.3 2 8 C0.74335022 5.09399739 0 3.20395416 0 0 Z " fill="#8B898A" transform="translate(1083,744)"/>
<path d="M0 0 C3.63 0 7.26 0 11 0 C11 0.99 11 1.98 11 3 C7.37 3 3.74 3 0 3 C0 2.01 0 1.02 0 0 Z " fill="#8C8B8B" transform="translate(969,746)"/>
<path d="M0 0 C0 3 0 3 -1.64453125 4.859375 C-2.35996094 5.48328125 -3.07539062 6.1071875 -3.8125 6.75 C-4.52019531 7.38421875 -5.22789062 8.0184375 -5.95703125 8.671875 C-6.63121094 9.11015625 -7.30539062 9.5484375 -8 10 C-8.99 9.67 -9.98 9.34 -11 9 C-7.37 6.03 -3.74 3.06 0 0 Z " fill="#287AC1" transform="translate(865,381)"/>
<path d="M0 0 C0.66 0 1.32 0 2 0 C2 3.3 2 6.6 2 10 C1.01 10 0.02 10 -1 10 C-1.99 10.66 -2.98 11.32 -4 12 C-3.71125 11.29875 -3.4225 10.5975 -3.125 9.875 C-0.97598999 5.06827751 -0.97598999 5.06827751 0 0 Z " fill="#0393D8" transform="translate(800,234)"/>
<path d="M0 0 C0 3 0 3 -1.64453125 4.859375 C-2.35996094 5.48328125 -3.07539062 6.1071875 -3.8125 6.75 C-4.52019531 7.38421875 -5.22789062 8.0184375 -5.95703125 8.671875 C-6.63121094 9.11015625 -7.30539062 9.5484375 -8 10 C-8.99 9.67 -9.98 9.34 -11 9 C-7.37 6.03 -3.74 3.06 0 0 Z " fill="#3A74BD" transform="translate(885,409)"/>
<path d="M0 0 C1.32 0.33 2.64 0.66 4 1 C3.67 2.65 3.34 4.3 3 6 C0.525 5.01 0.525 5.01 -2 4 C-1.34 2.68 -0.68 1.36 0 0 Z " fill="#797778" transform="translate(589,819)"/>
<path d="M0 0 C2.31 0 4.62 0 7 0 C7 0.99 7 1.98 7 3 C2.05 3 -2.9 3 -8 3 C-8 2.67 -8 2.34 -8 2 C-5.36 1.67 -2.72 1.34 0 1 C0 0.67 0 0.34 0 0 Z " fill="#7C7B7C" transform="translate(725,757)"/>
<path d="M0 0 C0.66 0.33 1.32 0.66 2 1 C-0.31 3.64 -2.62 6.28 -5 9 C-5.66 8.34 -6.32 7.68 -7 7 C-4.69 4.69 -2.38 2.38 0 0 Z " fill="#848586" transform="translate(880,749)"/>
<path d="M0 0 C0 1.65 0 3.3 0 5 C-1.98 5 -3.96 5 -6 5 C-6 4.01 -6 3.02 -6 2 C-2.25 0 -2.25 0 0 0 Z " fill="#7C7C7D" transform="translate(1085,768)"/>
<path d="M0 0 C3.24299151 2.38957269 5.50902342 4.2047869 7 8 C3.2047869 6.50902342 1.38957269 4.24299151 -1 1 C-0.67 0.67 -0.34 0.34 0 0 Z " fill="#2657A3" transform="translate(570,464)"/>
</svg>
